<?xml version="1.0" encoding="UTF-8"?>
<svg version="1.1" xmlns="http://www.w3.org/2000/svg" width="500" height="500">
<path d="M0 0 C165 0 330 0 500 0 C500 165 500 330 500 500 C335 500 170 500 0 500 C0 335 0 170 0 0 Z " fill="#FEFEFE" transform="translate(0,0)"/>
<path d="M0 0 C0.33 0 0.66 0 1 0 C0.64172354 11.89477853 -0.74424598 23.60176705 -2.26977539 35.39550781 C-3.3493295 43.75507872 -4.3766459 52.11831779 -5.33984375 60.4921875 C-5.45206268 61.46735321 -5.56428162 62.44251892 -5.67990112 63.44723511 C-6.1276364 67.34709531 -6.57389227 71.24711287 -7.01574707 75.14764404 C-7.32476515 77.8747198 -7.63682686 80.60143401 -7.94921875 83.328125 C-8.04073715 84.14650848 -8.13225555 84.96489197 -8.22654724 85.80807495 C-8.62590456 89.27934253 -9.10039804 92.62465288 -10 96 C-16.04819812 96.88902912 -21.89223486 97.12348383 -28 97.0625 C-28.87011719 97.05798828 -29.74023438 97.05347656 -30.63671875 97.04882812 C-32.75784293 97.0371736 -34.8789311 97.01924357 -37 97 C-37.43699219 95.69289062 -37.43699219 95.69289062 -37.8828125 94.359375 C-42.57033497 80.73902669 -47.96292706 68.18206518 -58.9375 58.375 C-64.50949991 55.87328576 -69.67291649 56.34192702 -75.375 58.3125 C-78.51350024 59.77352597 -79.9121186 60.43402401 -82 63 C-82.77813652 65.03341887 -82.77813652 65.03341887 -83.1875 67.1875 C-83.455625 68.445625 -83.72375 69.70375 -84 71 C-83.01 70.67 -82.02 70.34 -81 70 C-80.80664062 70.79664063 -80.61328125 71.59328125 -80.4140625 72.4140625 C-80.15367187 73.47367187 -79.89328125 74.53328125 -79.625 75.625 C-79.36976563 76.66914063 -79.11453125 77.71328125 -78.8515625 78.7890625 C-78.57054687 79.84867187 -78.28953125 80.90828125 -78 82 C-77.60554688 83.51400391 -77.60554688 83.51400391 -77.203125 85.05859375 C-70.74419756 100.8494131 -47.45096517 112.72995238 -33.9375 121.96875 C-9.50594624 138.86290952 16.69003357 159.91622927 23.53515625 190.375 C26.79805035 215.82009016 21.98702252 242.84740754 6.91796875 263.91015625 C5.00609809 266.33380873 3.02513419 268.67088161 1 271 C0.54496094 271.598125 0.08992187 272.19625 -0.37890625 272.8125 C-8.9097735 283.81349896 -21.53289726 290.46886841 -34 296 C-35.36511719 296.61488281 -35.36511719 296.61488281 -36.7578125 297.2421875 C-62.9808821 307.84650091 -93.04551882 306.43410834 -119 296 C-120.86371799 294.93318212 -122.71828842 293.85019489 -124.5625 292.75 C-131.10329913 289.27216618 -137.40750507 289.45752904 -144.64038086 289.32006836 C-167.83122241 288.78497104 -187.6110451 277.50635072 -203.41015625 260.96484375 C-224.86618528 236.40205939 -234.73764152 205.16951401 -233.21582031 172.77880859 C-231.38042782 149.1470921 -220.13407976 126.255409 -203 110 C-202.50242188 109.47019531 -202.00484375 108.94039063 -201.4921875 108.39453125 C-188.46853998 94.67427003 -170.04903915 86.12974516 -151.50390625 83.4296875 C-149.01140767 83.12632553 -149.01140767 83.12632553 -147 82 C-144.7927077 81.92907158 -142.58332548 81.91584975 -140.375 81.9375 C-139.18648438 81.94652344 -137.99796875 81.95554687 -136.7734375 81.96484375 C-135.40058594 81.98224609 -135.40058594 81.98224609 -134 82 C-133.92265625 80.9790625 -133.92265625 80.9790625 -133.84375 79.9375 C-132.0904322 64.95460246 -124.25443713 51.16103759 -112.4453125 41.76269531 C-95.58555965 29.12796426 -75.80713742 24.8864311 -55 27 C-49.76476934 28.01721436 -44.65546924 29.41102089 -39.55249023 30.95336914 C-38.63798096 31.22785889 -37.72347168 31.50234863 -36.78125 31.78515625 C-35.97751953 32.04176025 -35.17378906 32.29836426 -34.34570312 32.56274414 C-31.56937559 33.08027147 -29.69673927 32.80219816 -27 32 C-24.76293592 30.10484206 -24.76293592 30.10484206 -22.75 27.625 C-21.97140625 26.71878906 -21.1928125 25.81257813 -20.390625 24.87890625 C-19.60171875 23.92886719 -18.8128125 22.97882813 -18 22 C-16.87851562 20.65228516 -16.87851562 20.65228516 -15.734375 19.27734375 C-13.05043639 16.0162645 -10.39555001 12.73248187 -7.74609375 9.44335938 C-6.49976039 7.89782978 -5.24992372 6.35512738 -4 4.8125 C-2.88625 3.42998047 -2.88625 3.42998047 -1.75 2.01953125 C-1.1725 1.35308594 -0.595 0.68664062 0 0 Z " fill="#ECE7E9" transform="translate(358,68)"/>
<path d="M0 0 C2.08060425 0.1235718 4.16576333 0.17560367 6.25 0.1875 C7.36890625 0.20167969 8.4878125 0.21585937 9.640625 0.23046875 C13.07764584 -0.00532687 15.79530445 -0.77153337 19 -2 C18.61461094 9.0301007 17.79148693 19.96773877 16.5625 30.9375 C16.44028076 32.06849121 16.31806152 33.19948242 16.19213867 34.36474609 C16.06814697 35.42902832 15.94415527 36.49331055 15.81640625 37.58984375 C15.70756104 38.53722412 15.59871582 39.48460449 15.48657227 40.46069336 C15.00664092 42.96534261 14.25850078 44.79608572 13 47 C12.6596875 45.93523437 12.319375 44.87046875 11.96875 43.7734375 C6.48697466 27.15289492 -1.79963504 7.7201858 -18.22265625 -0.640625 C-22.07960277 -2.22277894 -25.80354054 -2.46111384 -29.9375 -2.375 C-30.64334229 -2.36484863 -31.34918457 -2.35469727 -32.07641602 -2.34423828 C-37.30878999 -2.18812027 -41.47338222 -1.62583023 -46 1 C-46.78117187 1.44859375 -47.56234375 1.8971875 -48.3671875 2.359375 C-53.57131828 5.58493849 -56.91481838 8.11143252 -58.609375 14.18359375 C-60.92460326 24.21103507 -61.01454164 32.80667365 -56 42 C-53.84319785 45.16365055 -51.47277704 48.0801992 -49 51 C-48.2575 51.99 -47.515 52.98 -46.75 54 C-42.7950687 58.65211471 -37.79218495 62.26041807 -33 66 C-32.37512695 66.48919922 -31.75025391 66.97839844 -31.10644531 67.48242188 C-23.23042493 73.62824976 -15.25189613 79.59031673 -7.0625 85.3125 C-0.8453268 89.65878403 5.1722699 94.1373717 11 99 C12.0465331 99.84937977 13.09343186 100.69830913 14.140625 101.546875 C29.6070768 114.19712861 46.07183828 131.19393834 48.21777344 152.12402344 C49.5388994 176.50480249 42.47901879 199.38731613 26.43359375 217.97265625 C11.51271187 233.76229399 -10.90529154 243.49086758 -32.64453125 244.203125 C-54.2407132 244.53331629 -73.83488352 241.55709394 -92 229 C-92.83015625 228.42765625 -93.6603125 227.8553125 -94.515625 227.265625 C-108.81250997 216.65259996 -117.63144868 200.35192831 -120.56640625 182.9609375 C-122.6101522 164.29104209 -120.16104811 147.8143012 -108.75 132.3125 C-97.08103819 118.289496 -80.38217378 108.67768129 -62.08203125 106.54296875 C-58.71923546 106.29000016 -55.37043237 106.10106244 -52 106 C-52 106.66 -52 107.32 -52 108 C-52.67804688 108.23074219 -53.35609375 108.46148437 -54.0546875 108.69921875 C-72.03143903 114.99855135 -83.61455285 123.77315939 -92 141 C-96.78627564 151.2440586 -98.33511924 160.66629444 -98.25 171.9375 C-98.25773437 172.95779297 -98.26546875 173.97808594 -98.2734375 175.02929688 C-98.2255103 193.80477705 -91.3745984 210.9937811 -78.4609375 224.6796875 C-67.27779847 235.22379002 -52.87984127 239.77030641 -37.73022461 239.52587891 C-23.91516976 238.89053254 -9.00161854 235.00161854 1 225 C13.7483469 209.76486794 16.68075066 190.29209448 15 171 C10.1967017 145.22901031 -14.91471193 127.1507052 -34.59326172 112.57983398 C-41.50364973 107.44095095 -48.08734364 102.02875201 -54.51855469 96.30517578 C-55.9020558 95.08629032 -57.31340763 93.8992214 -58.7265625 92.71484375 C-70.10119578 83.01295066 -82.38844465 68.41374714 -84 53 C-84.78865994 37.75828949 -82.96550736 24.74784496 -73.4375 12.3125 C-55.14334775 -7.38517187 -23.90333291 -11.95166645 0 0 Z " fill="#0F0F0F" transform="translate(321,114)"/>
<path d="M0 0 C0.98540771 0.00563965 1.97081543 0.0112793 2.98608398 0.01708984 C4.10865601 0.02796631 4.10865601 0.02796631 5.25390625 0.0390625 C5.33523804 0.91304687 5.33523804 0.91304687 5.41821289 1.8046875 C7.17699267 19.57762003 10.82757427 33.36485341 22.140625 47.390625 C24.36951817 50.18395138 26.3084859 53.04408129 28.25390625 56.0390625 C27.04476562 56.51214844 25.835625 56.98523438 24.58984375 57.47265625 C2.5454095 66.29223817 -13.67142692 77.44526346 -24.49609375 99.3515625 C-32.71929081 118.72899717 -32.40424118 142.66329669 -24.90039062 162.24609375 C-21.4412868 170.750642 -17.459161 178.25178148 -11.3125 185.15625 C-9.74609375 187.0390625 -9.74609375 187.0390625 -8.74609375 190.0390625 C-7.42270743 190.72526281 -6.08659427 191.38692711 -4.74609375 192.0390625 C-2.64482214 193.6163006 -0.71639308 195.29266082 1.25390625 197.0390625 C1.25390625 197.3690625 1.25390625 197.6990625 1.25390625 198.0390625 C-8.13640424 198.54211485 -14.19378722 196.08177338 -21.453125 190.109375 C-38.90253524 174.35437087 -46.49544074 152.63130761 -50.74609375 130.0390625 C-50.92414551 129.19859375 -51.10219727 128.358125 -51.28564453 127.4921875 C-53.23219358 117.07374573 -53.04808102 106.62062943 -53.00683594 96.05712891 C-52.99616267 92.81002934 -53.00675327 89.56348852 -53.01953125 86.31640625 C-53.03757518 61.11264988 -51.31008374 34.22149166 -33.4921875 14.55078125 C-24.16966161 5.64724529 -12.9999976 -0.09665426 0 0 Z " fill="#FDFDFD" transform="translate(217.74609375,153.9609375)"/>
<path d="M0 0 C0 0.66 0 1.32 0 2 C-1.01578125 2.15855469 -2.0315625 2.31710938 -3.078125 2.48046875 C-19.69227988 5.22652631 -33.20523411 10.58810883 -43.47265625 24.6484375 C-56.61334753 44.88039697 -57.36394734 68.81660223 -57.31567383 92.17382812 C-57.31251127 95.36362867 -57.3360793 98.55250049 -57.36132812 101.7421875 C-57.41471603 118.54491252 -55.92072828 134.60450468 -50.8125 150.6875 C-50.51206787 151.64809326 -50.21163574 152.60868652 -49.90209961 153.59838867 C-44.08763746 171.5204548 -34.93960067 188.59073905 -17.93774414 198.08984375 C-14.67039632 199.62451336 -11.26939065 200.33038795 -7.75 201.0625 C0.05617139 202.69353399 0.05617139 202.69353399 3 206 C-23.19569898 206.99341916 -43.00999924 200.80779883 -62.98046875 183.40234375 C-85.1157086 162.2037149 -97.50893947 132.00131512 -98.40209961 101.52954102 C-98.72622297 74.3635328 -89.29445707 49.08930864 -70.4375 29.3125 C-69.633125 28.549375 -68.82875 27.78625 -68 27 C-67.50242188 26.47019531 -67.00484375 25.94039062 -66.4921875 25.39453125 C-49.05283151 7.0223725 -24.75508015 -0.65915894 0 0 Z " fill="#0F0F0F" transform="translate(223,151)"/>
<path d="M0 0 C17.49 0 34.98 0 53 0 C53.66 1.32 54.32 2.64 55 4 C54.401875 4.7425 53.80375 5.485 53.1875 6.25 C47.21964002 15.34195416 47.53512461 26.92976491 47.48828125 37.390625 C47.47139068 38.8308053 47.45323474 40.27097126 47.43388367 41.71112061 C47.38685159 45.4592032 47.3567424 49.20722764 47.33044434 52.95550537 C47.30039936 56.79727667 47.2539529 60.63884828 47.20898438 64.48046875 C47.12348547 71.98687902 47.05590623 79.4933047 47 87 C38.74760947 89.75079684 27.47542188 88.75148168 19.2734375 86.14453125 C18.52320313 85.76683594 17.77296875 85.38914062 17 85 C15.80930908 84.43845215 14.61861816 83.8769043 13.3918457 83.29833984 C10.76395638 81.38105892 10.08461612 80.40478551 9.41064453 77.1806488 C9.25450109 73.46789176 9.32001304 69.79223066 9.45703125 66.08203125 C9.48028211 64.70071497 9.49980814 63.31933146 9.51579285 61.93791199 C9.56511285 58.30261027 9.6529056 54.66939217 9.75250244 51.03515625 C9.90899258 45.23785727 10.02443079 39.44034294 10.10693932 33.64154625 C10.14364439 31.63061863 10.20829644 29.62026261 10.27363586 27.61006165 C10.41251917 20.06164561 9.9773831 13.59206611 6 7 C4.11445689 5.05279893 2.2041567 3.60302306 0 2 C0 1.34 0 0.68 0 0 Z " fill="#0E0E0E" transform="translate(245,252)"/>
<path d="M0 0 C4.94116274 2.94429166 8.15813029 6.18887477 11.625 10.75 C12.10573975 11.37471191 12.58647949 11.99942383 13.08178711 12.64306641 C20.92754112 23.01697154 23.99085733 32.99499758 23 46 C21.18593267 58.8118505 17.50303235 69.84979748 7 78 C2.10468661 80.86251376 -2.4231472 82.10863731 -8 83 C-8.06968864 73.88095408 -8.12290666 64.76200066 -8.15543652 55.64274597 C-8.1710538 51.40773066 -8.19221954 47.17289832 -8.22631836 42.93798828 C-8.25905307 38.84662085 -8.2768826 34.75542878 -8.28463173 30.66394043 C-8.29015002 29.10751589 -8.30092569 27.55110032 -8.31719017 25.99475098 C-8.47157878 10.6009833 -8.47157878 10.6009833 -5 4 C-2.3125 1.5 -2.3125 1.5 0 0 Z " fill="#FEFEFE" transform="translate(301,256)"/>
<path d="M0 0 C5.79945999 2.12455465 7.93034729 4.75489216 10.59448242 10.34667969 C12.71681394 16.2038525 12.40995443 22.17155274 12.36328125 28.328125 C12.36377975 29.59468933 12.36427826 30.86125366 12.36479187 32.16619873 C12.36245902 34.83246923 12.35437709 37.49793284 12.33618164 40.1640625 C12.31340337 43.57590023 12.31297255 46.98729598 12.31969929 50.399189 C12.32384567 53.6672009 12.31187124 56.93513453 12.30078125 60.203125 C12.30169266 61.42606262 12.30260406 62.64900024 12.30354309 63.90899658 C12.29401108 65.04407654 12.28447906 66.17915649 12.2746582 67.34863281 C12.27005081 68.3459845 12.26544342 69.34333618 12.26069641 70.37091064 C11.99479627 73.05247891 11.37033833 74.70392644 10 77 C-0.74228496 69.40179844 -6.38322482 56.18575454 -8.61328125 43.515625 C-10.35069434 27.72096052 -7.98488482 13.90809856 0 0 Z " fill="#FDFDFD" transform="translate(244,254)"/>
<path d="M0 0 C12.96426244 -0.75568887 27.1515829 0.07579145 39 6 C41.08060425 6.1235718 43.16576333 6.17560367 45.25 6.1875 C46.92835938 6.20876953 46.92835938 6.20876953 48.640625 6.23046875 C52.07764584 5.99467313 54.79530445 5.22846663 58 4 C57.61461094 15.0301007 56.79148693 25.96773877 55.5625 36.9375 C55.44028076 38.06849121 55.31806152 39.19948242 55.19213867 40.36474609 C55.06814697 41.42902832 54.94415527 42.49331055 54.81640625 43.58984375 C54.70756104 44.53722412 54.59871582 45.48460449 54.48657227 46.46069336 C54.00664092 48.96534261 53.25850078 50.79608572 52 53 C51.6596875 51.93523437 51.319375 50.87046875 50.96875 49.7734375 C45.33497062 32.69202421 37.06133876 14.57557648 20.875 5.1875 C16.4466905 3.44240309 11.69150874 3.53889096 6.98828125 3.40625 C3.75277575 2.96639043 2.37744624 2.17498731 0 0 Z " fill="#121212" transform="translate(282,108)"/>
<path d="M0 0 C0.56396484 0.42990234 1.12792969 0.85980469 1.70898438 1.30273438 C4.87262529 3.74114299 7.59493564 6.21993564 10.4375 9.0625 C-5.7325 9.0625 -21.9025 9.0625 -38.5625 9.0625 C-33.34432259 0.36553765 -25.04022707 -3.84476801 -15.5625 -6.9375 C-14.91023438 -7.19789063 -14.25796875 -7.45828125 -13.5859375 -7.7265625 C-8.53663809 -8.25293734 -3.80867677 -2.94964265 0 0 Z " fill="#FEFEFE" transform="translate(285.5625,241.9375)"/>
<path d="M0 0 C0.66 0 1.32 0 2 0 C2.33 5.61 2.66 11.22 3 17 C-3.8359375 17.29296875 -3.8359375 17.29296875 -6 17 C-8 14 -8 14 -7.6875 10.375 C-7 7 -7 7 -6 6 C-4.00041636 5.95919217 -1.99954746 5.95745644 0 6 C0 4.02 0 2.04 0 0 Z " fill="#282828" transform="translate(212,104)"/>
<path d="M0 0 C6.93359375 -0.09765625 6.93359375 -0.09765625 9 0 C10.89885096 1.89885096 10.12367506 4.57247903 10.1328125 7.08984375 C10 9 10 9 9 11 C7.02 11 5.04 11 3 11 C3 12.65 3 14.3 3 16 C2.34 16 1.68 16 1 16 C0.67 10.72 0.34 5.44 0 0 Z " fill="#282828" transform="translate(184,136)"/>
<path d="M0 0 C0 0.66 0 1.32 0 2 C-1.27875 1.95875 -2.5575 1.9175 -3.875 1.875 C-6.01871492 1.75787127 -6.01871492 1.75787127 -8 2 C-10.37198957 3.93602047 -10.37198957 3.93602047 -10.25 7.4375 C-10.28809647 11.10420618 -10.28809647 11.10420618 -8 14 C-4.93443402 14.73343428 -4.93443402 14.73343428 -2 15 C-2 13.02 -2 11.04 -2 9 C-1.34 9 -0.68 9 0 9 C0 11.31 0 13.62 0 16 C-4.84435994 16.47493725 -7.9563259 16.72418203 -12.0625 13.875 C-14 11 -14 11 -14.625 8 C-12.90624488 -0.25002459 -7.17549203 -0.70347961 0 0 Z " fill="#343434" transform="translate(184,105)"/>
<path d="M0 0 C2.05078125 0.03255208 4.1015625 0.06510417 6.15234375 0.09765625 C6.15234375 0.75765625 6.15234375 1.41765625 6.15234375 2.09765625 C3.84234375 1.76765625 1.53234375 1.43765625 -0.84765625 1.09765625 C-0.79997222 2.97646497 -0.79997222 2.97646497 0.15234375 5.09765625 C1.66828125 6.02578125 1.66828125 6.02578125 3.21484375 6.97265625 C4.18421875 7.67390625 5.15359375 8.37515625 6.15234375 9.09765625 C6.58984375 12.28515625 6.58984375 12.28515625 6.15234375 15.09765625 C5.15234375 16.09765625 5.15234375 16.09765625 3.0859375 16.1953125 C2.26222656 16.18371094 1.43851563 16.17210937 0.58984375 16.16015625 C-0.23644531 16.15113281 -1.06273437 16.14210937 -1.9140625 16.1328125 C-2.87119141 16.11541016 -2.87119141 16.11541016 -3.84765625 16.09765625 C-3.84765625 15.43765625 -3.84765625 14.77765625 -3.84765625 14.09765625 C-1.53765625 14.09765625 0.77234375 14.09765625 3.15234375 14.09765625 C2.9760854 11.71816853 2.45514602 10.39539776 0.75 8.71875 C-0.75414717 7.47650139 -2.29895476 6.28389569 -3.84765625 5.09765625 C-2.72914438 0.14424653 -2.72914438 0.14424653 0 0 Z " fill="#3E3E3E" transform="translate(174.84765625,130.90234375)"/>
<path d="M0 0 C0.66 0 1.32 0 2 0 C2.33 2.97 2.66 5.94 3 9 C3.66 9 4.32 9 5 9 C5.33 6.03 5.66 3.06 6 0 C6.99 0 7.98 0 9 0 C9.33 3.63 9.66 7.26 10 11 C3.06640625 11.09765625 3.06640625 11.09765625 1 11 C0 10 0 10 -0.09765625 7.71484375 C-0.08605469 6.79832031 -0.07445312 5.88179688 -0.0625 4.9375 C-0.05347656 4.01839844 -0.04445312 3.09929687 -0.03515625 2.15234375 C-0.02355469 1.44207031 -0.01195312 0.73179688 0 0 Z " fill="#565656" transform="translate(187,110)"/>
<path d="M0 0 C2.5 0.25 2.5 0.25 4.5 2.25 C4.5 3.24 4.5 4.23 4.5 5.25 C2.19 5.25 -0.12 5.25 -2.5 5.25 C-2.30528889 7.19999129 -2.30528889 7.19999129 -1.5 9.25 C0.4837767 10.53436734 0.4837767 10.53436734 2.5 11.25 C0.125 11.375 0.125 11.375 -2.5 11.25 C-4.5 9.25 -4.5 9.25 -4.75 5.75 C-4.46177779 1.71488904 -4.15174939 0.41517494 0 0 Z " fill="#5B5B5B" transform="translate(214.5,135.75)"/>
<path d="M0 0 C2.5 0.25 2.5 0.25 4.5 2.25 C4.5 3.24 4.5 4.23 4.5 5.25 C2.19 5.25 -0.12 5.25 -2.5 5.25 C-2.30528889 7.19999129 -2.30528889 7.19999129 -1.5 9.25 C0.4837767 10.53436734 0.4837767 10.53436734 2.5 11.25 C0.125 11.375 0.125 11.375 -2.5 11.25 C-4.5 9.25 -4.5 9.25 -4.75 5.75 C-4.46177779 1.71488904 -4.15174939 0.41517494 0 0 Z " fill="#5B5B5B" transform="translate(221.5,109.75)"/>
<path d="M0 0 C2.125 0.375 2.125 0.375 4 1 C4 3.31 4 5.62 4 8 C2.35 8.33 0.7 8.66 -1 9 C-1.625 5.625 -1.625 5.625 -2 2 C-1.34 1.34 -0.68 0.68 0 0 Z " fill="#E7E7E7" transform="translate(208,111)"/>
<path d="M0 0 C3.13269705 3.13269705 3.05494397 5.97328423 3.0625 10.25 C3.041875 11.4875 3.02125 12.725 3 14 C0.2669164 11.63960962 -1.00684499 9.47604252 -2 6 C-1.48717949 1.48717949 -1.48717949 1.48717949 0 0 Z " fill="#202020" transform="translate(276,138)"/>
<path d="M0 0 C0.99 0.33 1.98 0.66 3 1 C3 3.31 3 5.62 3 8 C1.35 8.33 -0.3 8.66 -2 9 C-2 6.36 -2 3.72 -2 1 C-1.34 0.67 -0.68 0.34 0 0 Z " fill="#F8F8F8" transform="translate(189,137)"/>
<path d="M0 0 C5.61 0 11.22 0 17 0 C16.67 0.99 16.34 1.98 16 3 C14.08404032 3.08133791 12.16708068 3.13934367 10.25 3.1875 C8.64898437 3.23970703 8.64898437 3.23970703 7.015625 3.29296875 C4 3 4 3 0 0 Z " fill="#525051" transform="translate(282,108)"/>
<path d="M0 0 C1.4540625 0.0309375 1.4540625 0.0309375 2.9375 0.0625 C2.6075 0.7225 2.2775 1.3825 1.9375 2.0625 C-0.125 2.6875 -0.125 2.6875 -2.0625 3.0625 C-2.0625 5.3725 -2.0625 7.6825 -2.0625 10.0625 C-0.7425 9.7325 0.5775 9.4025 1.9375 9.0625 C1.9375 9.7225 1.9375 10.3825 1.9375 11.0625 C-0.4375 11.25 -0.4375 11.25 -3.0625 11.0625 C-5.0625 8.0625 -5.0625 8.0625 -4.75 4.4375 C-3.86212049 0.07881879 -3.86212049 0.07881879 0 0 Z " fill="#353535" transform="translate(209.0625,109.9375)"/>
<path d="M0 0 C0.66 0 1.32 0 2 0 C3.20272819 2.40545638 3.10071472 3.94996953 3.0625 6.625 C3.05347656 7.44226563 3.04445312 8.25953125 3.03515625 9.1015625 C3.02355469 9.72804687 3.01195312 10.35453125 3 11 C2.01 11 1.02 11 0 11 C0 7.37 0 3.74 0 0 Z " fill="#575757" transform="translate(202,136)"/>
<path d="M0 0 C0.66 0 1.32 0 2 0 C2.04898438 0.62648438 2.09796875 1.25296875 2.1484375 1.8984375 C2.22320312 2.71570313 2.29796875 3.53296875 2.375 4.375 C2.44460937 5.18710938 2.51421875 5.99921875 2.5859375 6.8359375 C2.82892588 9.20334191 2.82892588 9.20334191 5 11 C3.35 10.67 1.7 10.34 0 10 C0 6.7 0 3.4 0 0 Z " fill="#313131" transform="translate(187,110)"/>
</svg>
